<svg width="14" height="19" viewBox="0 0 14 19" fill="none" xmlns="http://www.w3.org/2000/svg">
<path fill-rule="evenodd" clip-rule="evenodd" d="M10.9018 9.20972H2.77274C2.13138 9.20972 1.61145 9.72964 1.61145 10.371V16.1775C1.61145 16.8188 2.13138 17.3387 2.77274 17.3387H10.9018C11.5431 17.3387 12.0631 16.8188 12.0631 16.1775V10.371C12.0631 9.72964 11.5431 9.20972 10.9018 9.20972ZM2.77278 8.04834C1.49005 8.04834 0.450195 9.08819 0.450195 10.3709V16.1774C0.450195 17.4601 1.49005 18.5 2.77278 18.5H10.9018C12.1845 18.5 13.2244 17.4601 13.2244 16.1774V10.3709C13.2244 9.08819 12.1845 8.04834 10.9018 8.04834H2.77278ZM2.77283 4.56452C2.77283 3.11241 3.54752 1.7706 4.80508 1.04454C6.06265 0.318487 7.61203 0.318486 8.8696 1.04454C10.1272 1.7706 10.9019 3.1124 10.9019 4.56451V8.04839H9.74057V4.56452C9.74057 2.96111 8.44075 1.66129 6.83735 1.66129C5.23395 1.66129 3.93413 2.9611 3.93412 4.5645V8.04839H2.77283V4.56452Z" fill="#9E9E9E"/>
</svg>
