<svg width="10" height="18" viewBox="0 0 10 18" fill="none" xmlns="http://www.w3.org/2000/svg">
<path fill-rule="evenodd" clip-rule="evenodd" d="M7.1891 0C8.3951 0 8.9981 0.8208 8.9981 1.7613C8.9981 2.9358 7.95049 4.0221 6.587 4.0221C5.4449 4.0221 4.7789 3.3471 4.8104 2.2311C4.81039 1.2924 5.6033 0 7.1891 0ZM3.47845 17.9999C2.52625 17.9999 1.82875 17.4131 2.49475 14.8283L3.58735 10.2455C3.77725 9.51295 3.80875 9.21865 3.58735 9.21865C3.30205 9.21865 2.06725 9.72445 1.33555 10.2239L0.860352 9.43195C3.17515 7.46455 5.83825 6.31165 6.98125 6.31165C7.93255 6.31165 8.09095 7.45735 7.61575 9.21865L6.36385 14.0354C6.14245 14.8859 6.23695 15.1793 6.45925 15.1793C6.74455 15.1793 7.68055 14.8265 8.60035 14.093L9.14035 14.8256C6.88855 17.1179 4.42885 17.9999 3.47845 17.9999Z" fill="#9E9E9E"/>
</svg>
