<svg width="19" height="21" viewBox="0 0 19 21" fill="none" xmlns="http://www.w3.org/2000/svg">
<path fillRule="evenodd" clipRule="evenodd" d="M9.4502 10.5C7.66387 10.5 6.01323 9.54701 5.12007 8C4.2269 6.453 4.2269 4.54701 5.12007 3C6.01323 1.453 7.66386 0.500001 9.45019 0.5C11.2365 0.5 12.8872 1.45299 13.7803 3C14.6735 4.547 14.6735 6.45299 13.7803 8C12.8872 9.547 11.2365 10.5 9.4502 10.5H9.4502ZM9.45019 8.5C11.107 8.5 12.4502 7.15686 12.4502 5.50001C12.4502 3.84316 11.1071 2.50001 9.4502 2.5C7.79335 2.5 6.4502 3.84313 6.4502 5.49999C6.45019 7.15684 7.79332 8.49999 9.45017 8.5H9.45019ZM18.4502 19.5C18.4502 19.8573 18.2596 20.1874 17.9502 20.366C17.6408 20.5447 17.2596 20.5447 16.9502 20.366C16.6408 20.1874 16.4502 19.8573 16.4502 19.5V17.5C16.4502 15.8431 15.107 14.5 13.4502 14.5H5.4502C3.79334 14.5 2.4502 15.8431 2.4502 17.5V19.5C2.4502 19.8573 2.2596 20.1874 1.9502 20.366C1.64079 20.5447 1.2596 20.5447 0.950196 20.366C0.640794 20.1874 0.450195 19.8573 0.450195 19.5V17.5C0.450195 14.7386 2.68877 12.5 5.4502 12.5H13.4502C16.2116 12.5 18.4502 14.7386 18.4502 17.5V19.5Z" fill="#9E9E9E"/>
</svg>
